<?xml version="1.0" encoding="UTF-8"?>
<svg xmlns="http://www.w3.org/2000/svg" xmlns:xlink="http://www.w3.org/1999/xlink" width="500px" height="1000" viewBox="0 0 1100 1000" version="1.1">
<g id="surface1">
<path style=" stroke:none;fill-rule:nonzero;fill:rgb(57.647059%,58.431373%,60%);fill-opacity:1;" d="M -29.726562 830.332031 L -34.433594 826.628906 C -34.132812 826.328125 -8.40625 793.800781 36.132812 764.070312 C 62.359375 746.554688 89.785156 733.441406 117.8125 724.933594 C 152.945312 714.324219 188.878906 711.121094 224.914062 715.425781 C 288.375 722.933594 326.910156 746.855469 360.84375 767.972656 C 385.667969 783.390625 407.085938 796.703125 433.613281 800.707031 C 462.738281 805.007812 495.371094 797.203125 536.410156 776.082031 C 558.53125 764.671875 579.449219 753.359375 599.667969 742.449219 C 717.480469 678.589844 810.46875 628.140625 948.199219 674.085938 C 1044.992188 706.316406 1129.070312 718.226562 1212.851562 711.421875 C 1263.898438 707.316406 1315.546875 695.804688 1366.097656 677.386719 C 1421.847656 657.070312 1478.601562 627.441406 1534.855469 589.40625 L 1538.261719 594.410156 C 1481.605469 632.746094 1424.453125 662.574219 1368.199219 682.992188 C 1317.050781 701.613281 1265 713.222656 1213.351562 717.328125 C 1198.136719 718.527344 1182.824219 719.226562 1167.507812 719.226562 C 1097.742188 719.226562 1026.273438 706.417969 946.296875 679.691406 C 884.140625 658.972656 827.484375 656.769531 768.128906 672.785156 C 713.777344 687.398438 662.230469 715.324219 602.570312 747.65625 C 582.351562 758.664062 561.332031 769.976562 539.210938 781.386719 C 502.078125 800.503906 473.550781 807.914062 449.425781 807.914062 C 413.691406 807.914062 387.566406 791.695312 357.738281 773.078125 C 324.308594 752.257812 286.472656 728.738281 224.3125 721.429688 C 189.179688 717.328125 154.046875 720.429688 119.8125 730.738281 C 92.386719 739.046875 65.460938 751.859375 39.738281 768.976562 C -4.203125 798.101562 -29.527344 829.933594 -29.726562 830.332031 Z M -29.726562 830.332031 "/>
<path style=" stroke:none;fill-rule:nonzero;fill:rgb(57.647059%,58.431373%,60%);fill-opacity:1;" d="M -32.332031 799.804688 L -37.035156 796.101562 C -36.734375 795.800781 -11.011719 763.269531 33.53125 733.542969 C 59.757812 716.023438 87.183594 702.914062 115.210938 694.503906 C 150.34375 683.894531 186.277344 680.691406 222.3125 684.894531 C 285.769531 692.402344 324.308594 716.324219 358.238281 737.445312 C 383.0625 752.859375 404.484375 766.171875 431.007812 770.175781 C 460.136719 774.480469 492.769531 766.671875 533.808594 745.554688 C 556.027344 734.140625 577.046875 722.730469 597.367188 711.722656 C 715.078125 647.960938 807.96875 597.613281 945.496094 643.457031 C 1042.289062 675.6875 1126.367188 687.597656 1210.148438 680.792969 C 1261.195312 676.6875 1312.847656 665.175781 1363.394531 646.757812 C 1419.148438 626.441406 1475.902344 596.8125 1532.152344 558.777344 L 1535.558594 563.78125 C 1478.902344 602.117188 1421.75 631.945312 1365.496094 652.363281 C 1314.347656 670.984375 1262.296875 682.59375 1210.648438 686.699219 C 1195.433594 687.898438 1180.121094 688.597656 1164.804688 688.597656 C 1095.039062 688.597656 1023.570312 675.785156 943.59375 649.0625 C 881.535156 628.34375 824.882812 626.140625 765.527344 642.15625 C 711.175781 656.769531 659.726562 684.695312 600.167969 716.925781 C 579.851562 727.9375 558.730469 739.347656 536.507812 750.757812 C 499.472656 769.777344 470.945312 777.183594 446.824219 777.183594 C 411.089844 777.183594 384.964844 760.96875 355.136719 742.351562 C 321.707031 721.53125 283.769531 698.007812 221.609375 690.703125 C 186.476562 686.597656 151.242188 689.699219 117.011719 700.109375 C 89.585938 708.417969 62.558594 721.332031 36.933594 738.445312 C -7.007812 767.675781 -32.128906 799.40625 -32.332031 799.804688 Z M -32.332031 799.804688 "/>
<path style=" stroke:none;fill-rule:nonzero;fill:rgb(57.647059%,58.431373%,60%);fill-opacity:1;" d="M -27.324219 858.058594 L -32.03125 854.355469 C -31.730469 854.054688 -6.003906 821.523438 38.535156 791.796875 C 64.761719 774.28125 92.1875 761.167969 120.214844 752.761719 C 155.347656 742.148438 191.28125 738.945312 227.316406 743.152344 C 290.777344 750.65625 329.3125 774.582031 363.246094 795.699219 C 388.066406 811.117188 409.488281 824.429688 436.015625 828.433594 C 465.140625 832.734375 497.773438 824.929688 538.8125 803.808594 C 560.933594 792.398438 581.753906 781.085938 601.972656 770.175781 C 719.683594 706.117188 812.769531 655.667969 950.402344 701.710938 C 1047.09375 733.941406 1131.171875 745.855469 1215.054688 739.046875 C 1266.101562 734.941406 1317.75 723.433594 1368.296875 705.015625 C 1424.050781 684.695312 1480.804688 655.066406 1537.058594 617.132812 L 1540.460938 622.136719 C 1483.808594 660.472656 1426.652344 690.199219 1370.402344 710.71875 C 1319.253906 729.335938 1267.203125 740.949219 1215.554688 745.152344 C 1100.238281 746.355469 1184.925781 747.054688 1169.511719 747.054688 C 1099.742188 747.054688 1028.277344 734.242188 948.5 707.515625 C 886.339844 686.796875 829.6875 684.496094 770.332031 700.511719 C 715.980469 715.125 664.429688 743.050781 604.773438 775.382812 C 584.554688 786.390625 563.636719 797.703125 541.515625 809.113281 C 504.480469 828.230469 475.851562 835.640625 451.730469 835.640625 C 415.996094 835.640625 389.871094 819.421875 360.042969 800.804688 C 326.609375 779.984375 288.773438 756.464844 226.613281 749.15625 C 191.480469 745.054688 156.25 748.15625 122.015625 758.566406 C 94.589844 766.875 67.5625 779.785156 41.941406 796.902344 C -2 825.929688 -27.125 857.660156 -27.324219 858.058594 Z M -27.324219 858.058594 "/>
<path style=" stroke:none;fill-rule:nonzero;fill:rgb(57.647059%,58.431373%,60%);fill-opacity:1;" d="M -24.625 888.488281 L -29.328125 884.785156 C -29.027344 884.484375 -3.304688 851.953125 41.238281 822.226562 C 67.464844 804.710938 94.890625 791.597656 122.917969 783.1875 C 158.050781 772.578125 193.984375 769.375 230.019531 773.578125 C 293.480469 781.085938 332.015625 805.007812 365.949219 826.128906 C 390.769531 841.542969 412.191406 854.855469 438.714844 858.761719 C 467.84375 863.066406 500.476562 855.257812 541.515625 834.136719 C 563.636719 822.726562 584.453125 811.414062 604.675781 800.503906 C 722.484375 736.644531 815.472656 686.195312 953.203125 732.242188 C 1049.894531 764.472656 1133.976562 776.382812 1217.855469 769.574219 C 1268.90625 765.472656 1320.453125 753.960938 1371.101562 735.542969 C 1426.855469 715.222656 1483.609375 685.597656 1539.863281 647.660156 L 1543.265625 652.664062 C 1486.609375 691 1429.457031 720.730469 1373.203125 741.25 C 1322.054688 759.867188 1270.003906 771.476562 1218.355469 775.683594 C 1133.574219 782.589844 1048.695312 770.578125 951.304688 738.046875 C 889.144531 717.328125 832.488281 715.023438 773.132812 731.039062 C 718.78125 745.652344 667.234375 773.578125 607.578125 805.910156 C 587.359375 816.921875 566.4375 828.230469 544.316406 839.640625 C 507.179688 858.761719 478.65625 866.167969 454.53125 866.167969 C 418.796875 866.167969 392.671875 849.953125 362.84375 831.335938 C 329.414062 810.515625 291.578125 786.992188 229.417969 779.6875 C 194.285156 775.582031 159.152344 778.683594 124.917969 788.996094 C 97.492188 797.300781 70.566406 810.113281 44.84375 827.230469 C 0.902344 856.257812 -24.421875 888.089844 -24.625 888.488281 Z M -24.625 888.488281 "/>
<path style=" stroke:none;fill-rule:nonzero;fill:rgb(57.647059%,58.431373%,60%);fill-opacity:1;" d="M -22.222656 916.214844 L -26.925781 912.511719 C -26.625 912.210938 -0.902344 879.679688 43.640625 849.953125 C 69.867188 832.4375 97.292969 819.324219 125.320312 810.914062 C 160.453125 800.304688 196.386719 797.101562 232.421875 801.304688 C 295.980469 808.8125 334.417969 832.734375 368.449219 853.855469 C 393.273438 869.269531 414.695312 882.582031 441.21875 886.585938 C 470.347656 890.890625 502.976562 883.082031 543.917969 861.964844 C 566.039062 850.554688 586.957031 839.242188 607.175781 828.230469 C 724.886719 764.371094 817.976562 714.023438 955.605469 759.96875 C 1052.296875 792.296875 1136.378906 804.109375 1220.257812 797.402344 C 1271.304688 793.296875 1322.957031 781.789062 1373.503906 763.371094 C 1429.257812 743.050781 1486.011719 713.421875 1542.265625 675.386719 L 1545.667969 680.390625 C 1489.011719 718.726562 1431.859375 748.554688 1375.605469 769.074219 C 1324.457031 787.691406 1272.40625 799.304688 1220.757812 803.507812 C 1136.078125 810.316406 1051.199219 798.402344 953.707031 765.871094 C 891.546875 745.152344 834.992188 742.851562 775.535156 758.867188 C 721.183594 773.179688 669.636719 801.105469 609.980469 833.4375 C 589.660156 844.445312 568.738281 855.757812 546.519531 867.167969 C 509.484375 886.1875 480.957031 893.59375 456.832031 893.59375 C 421.101562 893.59375 394.976562 877.378906 365.148438 858.761719 C 331.714844 837.941406 293.777344 814.417969 231.621094 807.113281 C 196.488281 803.007812 161.253906 806.109375 127.019531 816.519531 C 99.59375 824.828125 72.570312 837.742188 46.945312 854.855469 C 3.101562 884.085938 -22.019531 915.816406 -22.222656 916.214844 Z M -22.222656 916.214844 "/>
<path style=" stroke:none;fill-rule:nonzero;fill:rgb(57.647059%,58.431373%,60%);fill-opacity:1;" d="M -19.417969 948.144531 L -24.121094 944.441406 C -23.824219 944.140625 1.902344 911.609375 46.445312 881.882812 C 72.570312 864.265625 100.09375 851.152344 128.121094 842.746094 C 163.253906 832.136719 199.1875 828.933594 235.222656 833.238281 C 298.683594 840.742188 337.21875 864.667969 371.152344 885.785156 C 395.976562 901.199219 417.394531 914.511719 443.921875 918.515625 C 473.050781 922.820312 505.679688 915.015625 546.71875 893.894531 C 568.839844 882.484375 589.660156 871.171875 609.878906 860.261719 C 727.691406 796.402344 820.679688 745.953125 958.410156 791.996094 C 1055.101562 824.226562 1139.179688 836.140625 1223.0625 829.332031 C 1274.109375 825.230469 1325.65625 813.71875 1376.304688 795.300781 C 1432.058594 774.980469 1488.8125 745.351562 1545.066406 707.417969 L 1548.46875 712.421875 C 1491.816406 750.757812 1434.660156 780.488281 1378.410156 801.007812 C 1327.257812 819.625 1275.210938 831.234375 1223.5625 835.4375 C 1208.246094 836.640625 1192.933594 837.339844 1177.519531 837.339844 C 1107.75 837.339844 1036.285156 824.527344 956.507812 797.804688 C 894.347656 777.082031 837.695312 774.78125 778.339844 790.796875 C 723.988281 805.410156 672.4375 833.335938 612.78125 865.667969 C 592.5625 876.675781 571.640625 887.988281 549.523438 899.398438 C 512.386719 918.515625 483.859375 925.925781 459.738281 925.925781 C 424.003906 925.925781 397.878906 909.710938 368.050781 891.089844 C 334.617188 870.273438 296.78125 846.75 234.621094 839.441406 C 199.488281 835.339844 164.257812 838.441406 130.023438 848.75 C 102.597656 857.058594 75.570312 869.972656 49.949219 887.085938 C 5.90625 916.015625 -19.21875 947.746094 -19.417969 948.144531 Z M -19.417969 948.144531 "/>
<path style=" stroke:none;fill-rule:nonzero;fill:rgb(57.647059%,58.431373%,60%);fill-opacity:1;" d="M -58.363281 681.023438 L 1564.175781 490.703125 L 1564.875 496.667969 L -57.664062 686.988281 Z M -58.363281 681.023438 "/>
<path style=" stroke:none;fill-rule:nonzero;fill:rgb(57.647059%,58.431373%,60%);fill-opacity:1;" d="M -58.378906 1031.558594 L 1564.164062 841.238281 L 1564.863281 847.203125 L -57.679688 1037.523438 Z M -58.378906 1031.558594 "/>
</g>
</svg>
